<svg width="21" height="15" viewBox="0 0 21 15" fill="none" xmlns="http://www.w3.org/2000/svg">
<path fill-rule="evenodd" clip-rule="evenodd" d="M10.1137 14.27L9.03289 10.8868H3.27135L2.13283 14.2811C1.99548 14.6905 1.57341 14.8946 1.19648 14.757C0.815246 14.6178 0.603829 14.1749 0.742345 13.7619L4.98076 1.12582C5.16827 0.566775 5.67037 0.199997 6.22594 0.199997C6.78865 0.199997 7.2957 0.576179 7.47755 1.14547L11.5114 13.773C11.644 14.1882 11.4262 14.6274 11.0433 14.7606C10.6646 14.8924 10.2452 14.6818 10.1137 14.27ZM3.79343 9.33028H8.53567L6.22239 2.08874L3.79343 9.33028Z" fill="#5887E8"/>
<path fill-rule="evenodd" clip-rule="evenodd" d="M18.8771 14.3095L18.7954 14.0935L18.5933 14.2051C17.9286 14.5721 17.0939 14.7997 16.1247 14.7997C15.2031 14.7997 14.323 14.5113 13.6594 13.9254C12.9828 13.3281 12.5748 12.4567 12.5748 11.4128C12.5748 10.5564 12.8877 9.67781 13.6167 9.02573C14.3361 8.38227 15.3847 8.02595 16.7497 8.02595H18.8249V6.65348C18.8249 5.81346 18.0831 5.0173 16.7499 5.0173C15.6233 5.0173 14.7095 5.40113 14.2715 6.24361C14.0748 6.62217 13.6291 6.75484 13.2765 6.5553C12.9186 6.35279 12.7792 5.87837 12.9783 5.49532C13.7896 3.93444 15.3741 3.46081 16.7499 3.46081C18.5529 3.46081 20.2998 4.63054 20.2998 6.65348V14.0215C20.2998 14.4594 19.9618 14.7997 19.5623 14.7997C19.256 14.7997 18.9873 14.6012 18.8771 14.3095ZM18.8247 11.7389L18.8249 9.58244H16.7497C15.6145 9.58244 14.9445 9.87846 14.5703 10.2131C14.2059 10.5389 14.0498 10.9645 14.0498 11.4128C14.0498 11.9995 14.2667 12.4324 14.6057 12.7317C14.9576 13.0424 15.4836 13.2433 16.1247 13.2433C17.08 13.2433 17.784 12.9591 18.2309 12.6169C18.7034 12.2555 18.8247 11.8922 18.8247 11.7389Z" fill="#5887E8"/>
</svg>
