<svg width="20" height="21" viewBox="0 0 20 21" fill="none" xmlns="http://www.w3.org/2000/svg">
<path d="M19.75 10.5C19.75 9.90326 19.5129 9.33097 19.091 8.90901C18.669 8.48705 18.0967 8.25 17.5 8.25H10.75V7.40625C11.3937 7.23904 11.9638 6.86303 12.371 6.33712C12.7782 5.81121 12.9994 5.1651 13 4.5C13 1.875 10.5212 0.195936 10.4163 0.125624C10.293 0.0433947 10.1482 -0.000488281 10 -0.000488281C9.85184 -0.000488281 9.707 0.0433947 9.58375 0.125624C9.47875 0.195936 7 1.875 7 4.5C7.00063 5.1651 7.22185 5.81121 7.629 6.33712C8.03616 6.86303 8.60626 7.23904 9.25 7.40625V8.25H2.5C1.90326 8.25 1.33097 8.48705 0.90901 8.90901C0.487053 9.33097 0.25 9.90326 0.25 10.5V12.6872C0.250769 13.5054 0.513613 14.3018 1 14.9597V18.75C1 19.3467 1.23705 19.919 1.65901 20.341C2.08097 20.7629 2.65326 21 3.25 21H16.75C17.3467 21 17.919 20.7629 18.341 20.341C18.7629 19.919 19 19.3467 19 18.75V14.9597C19.4864 14.3018 19.7492 13.5054 19.75 12.6872V10.5ZM8.5 4.5C8.5 3.22781 9.4375 2.20687 10 1.70719C10.5625 2.20687 11.5 3.22781 11.5 4.5C11.5 4.89782 11.342 5.27935 11.0607 5.56066C10.7794 5.84196 10.3978 6 10 6C9.60217 6 9.22064 5.84196 8.93934 5.56066C8.65804 5.27935 8.5 4.89782 8.5 4.5ZM1.75 10.5C1.75 10.3011 1.82902 10.1103 1.96967 9.96967C2.11032 9.82902 2.30109 9.75 2.5 9.75H17.5C17.6989 9.75 17.8897 9.82902 18.0303 9.96967C18.171 10.1103 18.25 10.3011 18.25 10.5V12.6872C18.25 13.9294 17.2694 14.9662 16.0637 14.9991C15.763 15.0076 15.4637 14.9557 15.1833 14.8465C14.903 14.7373 14.6474 14.573 14.4317 14.3633C14.216 14.1537 14.0445 13.9028 13.9274 13.6257C13.8103 13.3486 13.75 13.0508 13.75 12.75C13.75 12.5511 13.671 12.3603 13.5303 12.2197C13.3897 12.079 13.1989 12 13 12C12.8011 12 12.6103 12.079 12.4697 12.2197C12.329 12.3603 12.25 12.5511 12.25 12.75C12.25 13.3467 12.0129 13.919 11.591 14.341C11.169 14.7629 10.5967 15 10 15C9.40326 15 8.83097 14.7629 8.40901 14.341C7.98705 13.919 7.75 13.3467 7.75 12.75C7.75 12.5511 7.67098 12.3603 7.53033 12.2197C7.38968 12.079 7.19891 12 7 12C6.80109 12 6.61032 12.079 6.46967 12.2197C6.32902 12.3603 6.25 12.5511 6.25 12.75C6.25012 13.0509 6.18988 13.3488 6.07284 13.626C5.9558 13.9032 5.78434 14.1542 5.56861 14.364C5.35288 14.5737 5.09726 14.7381 4.81688 14.8474C4.53649 14.9566 4.23705 15.0085 3.93625 15C2.73063 14.9662 1.75 13.9294 1.75 12.6872V10.5ZM16.75 19.5H3.25C3.05109 19.5 2.86032 19.421 2.71967 19.2803C2.57902 19.1397 2.5 18.9489 2.5 18.75V16.1775C2.93902 16.3764 3.41322 16.4861 3.895 16.5C4.39624 16.5156 4.89545 16.4297 5.36266 16.2475C5.82986 16.0653 6.25541 15.7905 6.61375 15.4397C6.75366 15.3033 6.88279 15.1563 7 15C7.3493 15.4657 7.80224 15.8437 8.32295 16.1041C8.84366 16.3645 9.41783 16.5 10 16.5C10.5822 16.5 11.1563 16.3645 11.6771 16.1041C12.1978 15.8437 12.6507 15.4657 13 15C13.1176 15.1557 13.247 15.3021 13.3872 15.4378C14.0849 16.1212 15.0234 16.5027 16 16.5H16.1069C16.588 16.4858 17.0616 16.3762 17.5 16.1775V18.75C17.5 18.9489 17.421 19.1397 17.2803 19.2803C17.1397 19.421 16.9489 19.5 16.75 19.5Z" fill="#5887E8"/>
</svg>
