<svg width="25" height="16" viewBox="0 0 25 16" fill="none" xmlns="http://www.w3.org/2000/svg">
<path d="M12.5 12V9M12.5 9V6M12.5 9H9.5M12.5 9H15.5M23.5 11C23.5 8.79086 21.7091 7 19.5 7C19.4764 7 19.4532 7.00021 19.4297 7.00062C18.9447 3.60802 16.0267 1 12.5 1C9.70335 1 7.29019 2.64004 6.16895 5.01082C3.56206 5.18144 1.5 7.34981 1.5 9.99985C1.5 12.7613 3.73858 15.0001 6.5 15.0001L19.5 15C21.7091 15 23.5 13.2091 23.5 11Z" stroke="#5887E8" stroke-width="1.5" stroke-linecap="round" stroke-linejoin="round"/>
</svg>
