<svg width="24" height="24" viewBox="0 0 24 24" fill="none" xmlns="http://www.w3.org/2000/svg">
<path d="M3.09377 2.25C2.47216 2.25 1.87602 2.49693 1.43648 2.93647C0.996946 3.37601 0.750016 3.97215 0.750016 4.59375V10.5H0.751516C0.750402 10.5312 0.749902 10.5625 0.750016 10.5938V20.9452C0.750016 21.5669 0.996946 22.163 1.43648 22.6025C1.87602 23.0421 2.47216 23.289 3.09377 23.289H20.9063C21.5277 23.289 22.1238 23.0422 22.5633 22.6028C23.0028 22.1634 23.2498 21.5675 23.25 20.946V10.5938C23.25 10.5623 23.25 10.5308 23.2478 10.5H23.25V7.60275C23.25 6.98115 23.0031 6.38501 22.5635 5.94547C22.124 5.50593 21.5279 5.259 20.9063 5.259H12.666C12.4418 5.259 12.2273 5.1705 12.069 5.01225L10.2113 3.156C9.92414 2.86868 9.5832 2.64078 9.20794 2.48532C8.83268 2.32986 8.43045 2.2499 8.02427 2.25H3.09377ZM21.75 8.40675C21.4808 8.3029 21.1948 8.24975 20.9063 8.25H3.09377C2.80524 8.24962 2.51915 8.30276 2.25002 8.40675V4.59375C2.25002 4.128 2.62802 3.75 3.09377 3.75H8.02427C8.44727 3.75 8.85227 3.918 9.15077 4.2165L11.0085 6.0735C11.448 6.51225 12.0435 6.759 12.666 6.759H20.9063C21.3728 6.759 21.75 7.137 21.75 7.60275V8.40675ZM2.25002 10.5938C2.25002 10.128 2.62802 9.75 3.09377 9.75H20.9063C21.3728 9.75 21.75 10.128 21.75 10.5938V20.9452C21.75 21.4118 21.3728 21.789 20.9063 21.789H3.09377C2.87012 21.789 2.65562 21.7002 2.49741 21.5421C2.3392 21.3841 2.25021 21.1696 2.25002 20.946V10.5938Z" fill="#5887E8"/>
</svg>
