<svg width="265" height="144" viewBox="0 0 265 144" fill="none" xmlns="http://www.w3.org/2000/svg">
<path d="M132.423 15.5709C136.684 15.5709 140.138 12.0852 140.138 7.78545C140.138 3.48567 136.684 0 132.423 0C128.162 0 124.708 3.48567 124.708 7.78545C124.708 12.0852 128.162 15.5709 132.423 15.5709Z" fill="#5887E8"/>
<path d="M132.423 83.8042C136.684 83.8042 140.138 80.3185 140.138 76.0187C140.138 71.7189 136.684 68.2333 132.423 68.2333C128.162 68.2333 124.708 71.7189 124.708 76.0187C124.708 80.3185 128.162 83.8042 132.423 83.8042Z" fill="#5887E8"/>
<path d="M166.235 49.6899C170.496 49.6899 173.95 46.2043 173.95 41.9045C173.95 37.6047 170.496 34.119 166.235 34.119C161.974 34.119 158.52 37.6047 158.52 41.9045C158.52 46.2043 161.974 49.6899 166.235 49.6899Z" fill="#5887E8"/>
<path d="M156.294 73.7738C160.555 73.7738 164.009 70.2882 164.009 65.9884C164.009 61.6886 160.555 58.2029 156.294 58.2029C152.033 58.2029 148.579 61.6886 148.579 65.9884C148.579 70.2882 152.033 73.7738 156.294 73.7738Z" fill="#5887E8"/>
<path d="M163.961 16.9453C163.575 13.3832 160.709 10.482 157.176 10.0873C152.517 9.56414 148.569 13.231 148.569 17.8204C148.569 18.0107 148.574 18.2057 148.588 18.3864C148.703 19.875 148.23 21.3398 147.181 22.3861L143.591 25.9531C142.175 27.3608 140.081 27.7365 138.227 27.0231C135.919 26.129 133.358 25.7676 130.688 26.072C123.316 26.909 117.404 32.9823 116.703 40.4444C115.749 50.5697 124.108 58.9877 134.135 57.9937C141.555 57.2661 147.572 51.2451 148.359 43.764C148.645 41.0864 148.269 38.523 147.386 36.2163C146.657 34.3282 147.029 32.1833 148.445 30.747L152.102 27.0517C153.085 26.0624 154.434 25.4965 155.817 25.5869C155.974 25.6011 156.136 25.6011 156.294 25.6011C160.838 25.6011 164.471 21.6442 163.961 16.9453ZM156.275 22.3528C153.709 22.3528 151.635 20.284 151.635 17.7253C151.635 15.1666 153.709 13.0978 156.275 13.0978C158.84 13.0978 160.914 15.1666 160.914 17.7253C160.914 20.284 158.84 22.3528 156.275 22.3528Z" fill="#5887E8"/>
<path d="M108.058 25.6059C112.319 25.6059 115.773 22.1203 115.773 17.8205C115.773 13.5207 112.319 10.035 108.058 10.035C103.797 10.035 100.343 13.5207 100.343 17.8205C100.343 22.1203 103.797 25.6059 108.058 25.6059Z" fill="#5887E8"/>
<path d="M108.058 73.7738C112.319 73.7738 115.773 70.2882 115.773 65.9884C115.773 61.6886 112.319 58.2029 108.058 58.2029C103.797 58.2029 100.343 61.6886 100.343 65.9884C100.343 70.2882 103.797 73.7738 108.058 73.7738Z" fill="#5887E8"/>
<path d="M98.6114 49.6899C102.872 49.6899 106.327 46.2043 106.327 41.9045C106.327 37.6047 102.872 34.119 98.6114 34.119C94.3505 34.119 90.8964 37.6047 90.8964 41.9045C90.8964 46.2043 94.3505 49.6899 98.6114 49.6899Z" fill="#5887E8"/>
<path d="M0.599972 134.046L7.61888 125.062C7.69517 124.962 7.63795 124.815 7.51398 124.791C5.60667 124.396 4.06651 123.602 2.90782 122.408C1.69191 121.157 1.08157 119.54 1.08157 117.557C1.08157 115.574 1.70145 113.843 2.9412 112.654C4.60533 110.994 6.98946 110.166 10.1032 110.166H20.2024C20.4217 110.166 20.6029 110.342 20.6029 110.566V134.288C20.6029 134.507 20.4265 134.688 20.2024 134.688H18.2235C18.0042 134.688 17.823 134.512 17.823 134.288V125.694C17.823 125.476 17.6466 125.295 17.4225 125.295H10.9567C10.8327 125.295 10.7183 125.352 10.642 125.447L3.57538 134.526C3.49909 134.621 3.38465 134.678 3.26067 134.678H0.900372C0.566593 134.678 0.380632 134.298 0.585668 134.036L0.599972 134.046ZM10.2843 122.955H17.4368C17.6561 122.955 17.8373 122.779 17.8373 122.556V113.053C17.8373 112.834 17.6609 112.654 17.4368 112.654H10.2843C8.27213 112.654 6.6986 113.115 5.56375 114.038C4.4289 114.96 3.86147 116.202 3.86147 117.766C3.86147 119.331 4.45751 120.587 5.65435 121.533C6.85119 122.479 8.39134 122.95 10.2891 122.95L10.2843 122.955Z" fill="#5887E8"/>
<path d="M39.5898 134.507L50.409 110.656C50.4948 110.466 50.6808 110.347 50.8906 110.347H52.8075C53.0125 110.347 53.2032 110.466 53.2891 110.656L64.0129 134.298C64.1703 134.645 63.9175 135.04 63.5313 135.04H61.7051C61.4953 135.04 61.3093 134.916 61.2235 134.726L58.62 128.871C58.5342 128.681 58.3482 128.557 58.1384 128.557H45.4452C45.2354 128.557 45.0495 128.681 44.9636 128.867L42.3268 134.726C42.2409 134.916 42.055 135.035 41.8452 135.035H39.9283C39.6518 135.035 39.4706 134.75 39.585 134.502L39.5898 134.507ZM46.6898 126.075H56.9034C57.1371 126.075 57.2896 125.837 57.1943 125.623L52.1065 114.223C51.9921 113.971 51.6345 113.971 51.52 114.223L46.3989 125.623C46.3035 125.837 46.4609 126.075 46.6898 126.075Z" fill="#5887E8"/>
<path d="M80.4345 135.458C76.9012 135.458 73.9592 134.241 71.6227 131.796C69.2815 129.356 68.1133 126.351 68.1133 122.779C68.1133 119.207 69.2958 116.259 71.6609 113.795C74.0259 111.332 76.987 110.1 80.5442 110.1C82.6041 110.1 84.3588 110.433 85.8131 111.098C87.1292 111.702 88.4118 112.568 89.6707 113.7C89.89 113.895 89.8995 114.233 89.6993 114.447L88.5883 115.64C88.3928 115.85 88.0638 115.859 87.8492 115.669C85.589 113.662 83.1429 112.658 80.5108 112.658C77.8787 112.658 75.528 113.629 73.716 115.564C71.8993 117.505 70.9933 119.906 70.9933 122.779C70.9933 125.652 71.9041 128.025 73.7303 129.975C75.5566 131.925 77.8167 132.9 80.506 132.9C82.0986 132.9 83.5005 132.61 84.7212 132.025C85.8131 131.501 86.9289 130.731 88.059 129.713C88.2736 129.523 88.5978 129.528 88.7933 129.732C89.1128 130.07 89.5896 130.569 89.9091 130.912C90.1094 131.121 90.0998 131.454 89.89 131.649C88.6216 132.847 87.2961 133.765 85.9085 134.403C84.3874 135.102 82.5612 135.454 80.4297 135.454L80.4345 135.458Z" fill="#5887E8"/>
<path d="M106.345 135.458C102.812 135.458 99.87 134.241 97.5335 131.796C95.1923 129.356 94.024 126.351 94.024 122.779C94.024 119.207 95.2066 116.259 97.5716 113.795C99.9367 111.332 102.898 110.1 106.455 110.1C108.515 110.1 110.27 110.433 111.724 111.098C113.04 111.702 114.323 112.568 115.581 113.7C115.801 113.895 115.81 114.233 115.61 114.447L114.499 115.64C114.304 115.85 113.975 115.859 113.76 115.669C111.5 113.662 109.054 112.658 106.422 112.658C103.789 112.658 101.439 113.629 99.6268 115.564C97.8101 117.505 96.9041 119.906 96.9041 122.779C96.9041 125.652 97.8148 128.025 99.6411 129.975C101.467 131.925 103.727 132.9 106.417 132.9C108.009 132.9 109.411 132.61 110.632 132.025C111.724 131.501 112.84 130.731 113.97 129.713C114.184 129.523 114.509 129.528 114.704 129.732C115.024 130.07 115.5 130.569 115.82 130.912C116.02 131.121 116.011 131.454 115.801 131.649C114.532 132.847 113.207 133.765 111.819 134.403C110.298 135.102 108.472 135.454 106.341 135.454L106.345 135.458Z" fill="#5887E8"/>
<path d="M121.027 134.517V111.051C121.027 110.761 121.261 110.528 121.552 110.528H123.273C123.564 110.528 123.798 110.761 123.798 111.051V130.203C123.798 130.412 124.069 130.498 124.189 130.331L138.317 110.746C138.417 110.609 138.574 110.528 138.746 110.528H140.582C140.873 110.528 141.106 110.761 141.106 111.051V134.517C141.106 134.807 140.873 135.04 140.582 135.04H138.894C138.603 135.04 138.369 134.807 138.369 134.517V115.364C138.369 115.155 138.098 115.07 137.978 115.236L123.888 134.821C123.788 134.959 123.631 135.04 123.459 135.04H121.552C121.261 135.04 121.027 134.807 121.027 134.517Z" fill="#5887E8"/>
<path d="M159.302 135.458C155.769 135.458 152.827 134.241 150.49 131.796C148.149 129.356 146.981 126.351 146.981 122.779C146.981 119.207 148.163 116.259 150.528 113.795C152.894 111.332 155.855 110.1 159.412 110.1C161.472 110.1 163.226 110.433 164.681 111.098C165.997 111.702 167.279 112.568 168.538 113.7C168.758 113.895 168.767 114.233 168.567 114.447L167.456 115.64C167.26 115.85 166.931 115.859 166.717 115.669C164.457 113.662 162.01 112.658 159.378 112.658C156.746 112.658 154.396 113.629 152.584 115.564C150.767 117.505 149.861 119.906 149.861 122.779C149.861 125.652 150.772 128.025 152.598 129.975C154.424 131.925 156.684 132.9 159.374 132.9C160.966 132.9 162.368 132.61 163.589 132.025C164.681 131.501 165.796 130.731 166.927 129.713C167.141 129.523 167.465 129.528 167.661 129.732C167.98 130.07 168.457 130.569 168.777 130.912C168.977 131.121 168.967 131.454 168.758 131.649C167.489 132.847 166.164 133.765 164.776 134.403C163.255 135.102 161.429 135.454 159.297 135.454L159.302 135.458Z" fill="#5887E8"/>
<path d="M180.473 134.517V113.572C180.473 113.281 180.239 113.048 179.948 113.048H172.748C172.458 113.048 172.224 112.815 172.224 112.525V111.056C172.224 110.766 172.458 110.532 172.748 110.532H191.006C191.297 110.532 191.531 110.766 191.531 111.056V112.525C191.531 112.815 191.297 113.048 191.006 113.048H183.806C183.515 113.048 183.282 113.281 183.282 113.572V134.517C183.282 134.807 183.048 135.04 182.757 135.04H181.002C180.711 135.04 180.478 134.807 180.478 134.517H180.473Z" fill="#5887E8"/>
<path d="M196.733 134.517V111.051C196.733 110.761 196.967 110.528 197.258 110.528H213.97C214.261 110.528 214.495 110.761 214.495 111.051V112.52C214.495 112.811 214.261 113.044 213.97 113.044H200.028C199.737 113.044 199.503 113.277 199.503 113.567V120.886C199.503 121.176 199.737 121.409 200.028 121.409H212.387C212.678 121.409 212.912 121.642 212.912 121.932V123.402C212.912 123.692 212.678 123.925 212.387 123.925H200.028C199.737 123.925 199.503 124.158 199.503 124.448V131.977C199.503 132.267 199.737 132.5 200.028 132.5H214.142C214.433 132.5 214.667 132.733 214.667 133.023V134.493C214.667 134.783 214.433 135.016 214.142 135.016H197.253C196.962 135.016 196.728 134.783 196.728 134.493L196.733 134.517Z" fill="#5887E8"/>
<path d="M220.26 134.517V111.051C220.26 110.761 220.493 110.528 220.784 110.528H222.505C222.796 110.528 223.03 110.761 223.03 111.051V120.891C223.03 121.181 223.264 121.414 223.555 121.414H236.686C236.977 121.414 237.211 121.181 237.211 120.891V111.051C237.211 110.761 237.445 110.528 237.735 110.528H239.457C239.748 110.528 239.981 110.761 239.981 111.051V134.517C239.981 134.807 239.748 135.04 239.457 135.04H237.735C237.445 135.04 237.211 134.807 237.211 134.517V124.534C237.211 124.244 236.977 124.011 236.686 124.011H223.555C223.264 124.011 223.03 124.244 223.03 124.534V134.517C223.03 134.807 222.796 135.04 222.505 135.04H220.784C220.493 135.04 220.26 134.807 220.26 134.517Z" fill="#5887E8"/>
<path d="M253.443 134.517V113.572C253.443 113.281 253.209 113.048 252.918 113.048H245.718C245.427 113.048 245.193 112.815 245.193 112.525V111.056C245.193 110.766 245.427 110.532 245.718 110.532H263.976C264.267 110.532 264.5 110.766 264.5 111.056V112.525C264.5 112.815 264.267 113.048 263.976 113.048H256.776C256.485 113.048 256.251 113.281 256.251 113.572V134.517C256.251 134.807 256.017 135.04 255.727 135.04H253.972C253.681 135.04 253.447 134.807 253.447 134.517H253.443Z" fill="#5887E8"/>
<path d="M30.8974 100.326H29.9819C29.708 100.326 29.486 100.548 29.486 100.821V143.505C29.486 143.779 29.708 144 29.9819 144H30.8974C31.1712 144 31.3933 143.779 31.3933 143.505V100.821C31.3933 100.548 31.1712 100.326 30.8974 100.326Z" fill="#5887E8"/>
</svg>
