<svg width="20" height="19" viewBox="0 0 20 19" fill="none" xmlns="http://www.w3.org/2000/svg">
<path d="M1.5 3.5C1.5 2.11929 2.61929 1 4 1H6C7.38071 1 8.5 2.11929 8.5 3.5V5.5C8.5 6.88071 7.38071 8 6 8H4C2.61929 8 1.5 6.88071 1.5 5.5V3.5Z" stroke="#5887E8" stroke-width="1.5"/>
<path d="M1.5 13.5C1.5 12.1193 2.61929 11 4 11H6C7.38071 11 8.5 12.1193 8.5 13.5V15.5C8.5 16.8807 7.38071 18 6 18H4C2.61929 18 1.5 16.8807 1.5 15.5V13.5Z" stroke="#5887E8" stroke-width="1.5"/>
<path d="M11.5 3.5C11.5 2.11929 12.6193 1 14 1H16C17.3807 1 18.5 2.11929 18.5 3.5V5.5C18.5 6.88071 17.3807 8 16 8H14C12.6193 8 11.5 6.88071 11.5 5.5V3.5Z" stroke="#5887E8" stroke-width="1.5"/>
<path d="M11.5 13.5C11.5 12.1193 12.6193 11 14 11H16C17.3807 11 18.5 12.1193 18.5 13.5V15.5C18.5 16.8807 17.3807 18 16 18H14C12.6193 18 11.5 16.8807 11.5 15.5V13.5Z" stroke="#5887E8" stroke-width="1.5"/>
</svg>
