<svg width="28" height="28" viewBox="0 0 28 28" fill="none" xmlns="http://www.w3.org/2000/svg">
<path d="M14.0002 25.6668C7.57183 25.6668 2.3335 20.4285 2.3335 14.0002C2.3335 7.57183 7.57183 2.3335 14.0002 2.3335C20.4285 2.3335 25.6668 7.04683 25.6668 12.8335C25.6668 16.6952 22.5285 19.8335 18.6668 19.8335H16.6018C16.2752 19.8335 16.0185 20.0902 16.0185 20.4168C16.0185 20.5568 16.0768 20.6852 16.1702 20.8018C16.6485 21.3502 16.9168 22.0385 16.9168 22.7502C16.9168 23.5237 16.6095 24.2656 16.0626 24.8126C15.5156 25.3595 14.7737 25.6668 14.0002 25.6668ZM14.0002 4.66683C8.85516 4.66683 4.66683 8.85516 4.66683 14.0002C4.66683 19.1452 8.85516 23.3335 14.0002 23.3335C14.3268 23.3335 14.5835 23.0768 14.5835 22.7502C14.5799 22.5989 14.5219 22.4539 14.4202 22.3418C13.9418 21.8052 13.6852 21.1168 13.6852 20.4168C13.6852 19.6433 13.9925 18.9014 14.5394 18.3544C15.0864 17.8075 15.8283 17.5002 16.6018 17.5002H18.6668C21.2452 17.5002 23.3335 15.4118 23.3335 12.8335C23.3335 8.33016 19.1452 4.66683 14.0002 4.66683Z" fill="#5887E8"/>
<path d="M7.5835 15.1665C8.54999 15.1665 9.3335 14.383 9.3335 13.4165C9.3335 12.45 8.54999 11.6665 7.5835 11.6665C6.617 11.6665 5.8335 12.45 5.8335 13.4165C5.8335 14.383 6.617 15.1665 7.5835 15.1665Z" fill="#5887E8"/>
<path d="M11.0835 10.5C12.05 10.5 12.8335 9.7165 12.8335 8.75C12.8335 7.7835 12.05 7 11.0835 7C10.117 7 9.3335 7.7835 9.3335 8.75C9.3335 9.7165 10.117 10.5 11.0835 10.5Z" fill="#5887E8"/>
<path d="M16.9165 10.5C17.883 10.5 18.6665 9.7165 18.6665 8.75C18.6665 7.7835 17.883 7 16.9165 7C15.95 7 15.1665 7.7835 15.1665 8.75C15.1665 9.7165 15.95 10.5 16.9165 10.5Z" fill="#5887E8"/>
<path d="M20.4165 15.1665C21.383 15.1665 22.1665 14.383 22.1665 13.4165C22.1665 12.45 21.383 11.6665 20.4165 11.6665C19.45 11.6665 18.6665 12.45 18.6665 13.4165C18.6665 14.383 19.45 15.1665 20.4165 15.1665Z" fill="#5887E8"/>
</svg>
