<svg width="44" height="44" viewBox="0 0 44 44" fill="none" xmlns="http://www.w3.org/2000/svg">
<path d="M16.1333 9.16667C16.4926 9.16672 16.8393 9.31098 17.1077 9.57209C17.3762 9.8332 17.5477 10.193 17.5897 10.5832L17.6 10.7709V33.2308C17.5996 33.6397 17.4564 34.033 17.1998 34.3304C16.9432 34.6277 16.5925 34.8066 16.2193 34.8306C15.8461 34.8545 15.4786 34.7217 15.192 34.4593C14.9053 34.1968 14.7211 33.8246 14.6769 33.4185L14.6667 33.2308V10.7709C14.6667 10.3455 14.8212 9.93741 15.0962 9.63655C15.3713 9.33569 15.7443 9.16667 16.1333 9.16667ZM27.8667 9.16667C28.2259 9.16672 28.5726 9.31098 28.8411 9.57209C29.1095 9.8332 29.281 10.193 29.3231 10.5832L29.3333 10.7709V33.2308C29.3329 33.6397 29.1898 34.033 28.9332 34.3304C28.6765 34.6277 28.3258 34.8066 27.9526 34.8306C27.5794 34.8545 27.212 34.7217 26.9253 34.4593C26.6386 34.1968 26.4544 33.8246 26.4103 33.4185L26.4 33.2308V10.7709C26.4 10.3455 26.5545 9.93741 26.8296 9.63655C27.1046 9.33569 27.4777 9.16667 27.8667 9.16667Z" fill="white"/>
</svg>
