<svg width="22" height="22" viewBox="0 0 22 22" fill="none" xmlns="http://www.w3.org/2000/svg">
<path d="M8 11C8 12.6569 9.34314 14 11 14C12.6569 14 14 12.6569 14 11C14 9.34315 12.6569 8 11 8C9.34314 8 8 9.34315 8 11Z" stroke="#313131" stroke-width="1.5"/>
<path d="M13.461 1.30508C13.7881 1.38787 14.0011 1.68633 14.0772 2.01511C14.2581 2.79693 14.7503 3.50461 15.5001 3.9375C16.1891 4.33529 16.9703 4.42872 17.688 4.2595C18.0161 4.18215 18.3775 4.24076 18.5968 4.49671C19.3979 5.4317 20.0295 6.51632 20.4437 7.70289C20.569 8.0617 20.3869 8.44185 20.0936 8.68352C19.4258 9.23375 19 10.0672 19 11C19 11.9328 19.4258 12.7662 20.0936 13.3165C20.3869 13.5581 20.569 13.9383 20.4437 14.2971C20.0295 15.4835 19.3981 16.5681 18.597 17.503C18.3777 17.759 18.0163 17.8176 17.6882 17.7402C16.9704 17.5709 16.1891 17.6643 15.5001 18.0621C14.7502 18.4951 14.2579 19.2029 14.0771 19.9848C14.001 20.3136 13.788 20.6122 13.4609 20.695C12.6736 20.8942 11.8492 21 11 21C10.1509 21 9.32649 20.8942 8.53927 20.695C8.21208 20.6122 7.9991 20.3137 7.92305 19.9848C7.7422 19.2029 7.24994 18.4951 6.50005 18.0621C5.81097 17.6643 5.02967 17.5709 4.31189 17.7402C3.98379 17.8176 3.62234 17.759 3.40301 17.503C2.60196 16.5681 1.9705 15.4836 1.55631 14.2971C1.43105 13.9383 1.61313 13.5582 1.90645 13.3165C2.57426 12.7663 3.00004 11.9329 3.00004 11C3.00004 10.0671 2.57426 9.23374 1.90645 8.68351C1.61313 8.44184 1.43105 8.06169 1.55631 7.70287C1.97055 6.5163 2.6021 5.43167 3.40327 4.49667C3.6226 4.24072 3.984 4.18212 4.31207 4.25948C5.0298 4.42873 5.81103 4.33531 6.50005 3.9375C7.24985 3.5046 7.74209 2.79691 7.92299 2.01508C7.99906 1.6863 8.21204 1.38783 8.5392 1.30504C9.32643 1.10584 10.1509 1 11 1C11.8492 1 12.6737 1.10585 13.461 1.30508Z" stroke="#313131" stroke-width="1.5"/>
</svg>
