<svg width="24" height="24" viewBox="0 0 24 24" fill="none" xmlns="http://www.w3.org/2000/svg">
<path d="M13.1494 14.2267L13.3649 14.9451L13.1494 14.2267ZM10.8506 14.2267L10.6351 14.9451L10.8506 14.2267ZM3.42531 11.9991L3.64082 11.2808L3.42531 11.9991ZM20.5747 11.9991L20.3592 11.2808L20.5747 11.9991ZM11.25 11.5717C11.25 11.9859 11.5858 12.3217 12 12.3217C12.4142 12.3217 12.75 11.9859 12.75 11.5717H11.25ZM4 7.17871H20V5.67871H4V7.17871ZM21.25 8.42871V10.0835H22.75V8.42871H21.25ZM2.75 10.0835V8.42871H1.25V10.0835H2.75ZM20.3592 11.2808L12.9339 13.5083L13.3649 14.9451L20.7902 12.7175L20.3592 11.2808ZM11.0661 13.5083L3.64082 11.2808L3.2098 12.7175L10.6351 14.9451L11.0661 13.5083ZM12.9339 13.5083C12.3247 13.6911 11.6753 13.6911 11.0661 13.5083L10.6351 14.9451C11.5254 15.2122 12.4746 15.2122 13.3649 14.9451L12.9339 13.5083ZM1.25 10.0835C1.25 11.2979 2.04659 12.3685 3.2098 12.7175L3.64082 11.2808C3.11209 11.1221 2.75 10.6355 2.75 10.0835H1.25ZM21.25 10.0835C21.25 10.6355 20.8879 11.1221 20.3592 11.2808L20.7902 12.7175C21.9534 12.3685 22.75 11.2979 22.75 10.0835H21.25ZM20 7.17871C20.6904 7.17871 21.25 7.73836 21.25 8.42871H22.75C22.75 6.90993 21.5188 5.67871 20 5.67871V7.17871ZM4 5.67871C2.48122 5.67871 1.25 6.90993 1.25 8.42871H2.75C2.75 7.73836 3.30964 7.17871 4 7.17871V5.67871ZM11.25 9.85742V11.5717H12.75V9.85742H11.25ZM20.4167 11.5713V16.9998H21.9167V11.5713H20.4167ZM17.1667 20.2498H6.83338V21.7498H17.1667V20.2498ZM3.58337 16.9998V11.5713H2.08337V16.9998H3.58337ZM6.83338 20.2498C5.03845 20.2498 3.58337 18.7947 3.58337 16.9998H2.08337C2.08337 19.6232 4.21002 21.7498 6.83338 21.7498V20.2498ZM20.4167 16.9998C20.4167 18.7947 18.9616 20.2498 17.1667 20.2498V21.7498C19.7901 21.7498 21.9167 19.6232 21.9167 16.9998H20.4167ZM10.6666 3.75H13.3333V2.25H10.6666V3.75ZM14.5833 5V6.42855H16.0833V5H14.5833ZM9.41665 6.42855V5H7.91665V6.42855H9.41665ZM13.3333 3.75C14.0237 3.75 14.5833 4.30964 14.5833 5H16.0833C16.0833 3.48122 14.8521 2.25 13.3333 2.25V3.75ZM10.6666 2.25C9.14786 2.25 7.91665 3.48122 7.91665 5H9.41665C9.41665 4.30964 9.97629 3.75 10.6666 3.75V2.25Z" fill="#5887E8"/>
</svg>
