<svg width="18" height="21" viewBox="0 0 18 21" fill="none" xmlns="http://www.w3.org/2000/svg">
<path d="M11.0003 9V15M7.0003 9L7.0003 15M13.0003 4L12.4561 2.36754C12.1839 1.55086 11.4196 1 10.5588 1H7.44181C6.58095 1 5.81668 1.55086 5.54445 2.36754L5.0003 4M2.05093 6.73418C2.66717 7.55584 3.0003 8.5552 3.0003 9.58228V16C3.0003 18.2091 4.79116 20 7.0003 20H11.0003C13.2094 20 15.0003 18.2091 15.0003 16V9.58228C15.0003 8.5552 15.3334 7.55584 15.9497 6.73418C16.7946 5.60763 15.9908 4 14.5826 4H3.41802C2.00984 4 1.20602 5.60763 2.05093 6.73418Z" stroke="#313131" stroke-width="1.5" stroke-linecap="round"/>
</svg>
